<svg width="541px" height="414px" version="1.1" xmlns="http://www.w3.org/2000/svg" xmlns:xlink="http://www.w3.org/1999/xlink"><defs xmlns="http://www.w3.org/2000/svg"/><path xmlns="http://www.w3.org/2000/svg" d="M 22 155 C 22 131 22 119 42 119 C 28.67 119 28.67 95 42 95 C 55.33 95 55.33 119 42 119 C 62 119 62 131 62 155 Z" fill="#ccffff" stroke="#000000" stroke-miterlimit="10"/><g xmlns="http://www.w3.org/2000/svg" font-weight="bold" text-anchor="middle" font-size="14px" font-family="Verdana" fill="#000000"><text x="42" y="175.75">Developer</text></g><rect xmlns="http://www.w3.org/2000/svg" x="7" y="0" width="280" height="20" shape-rendering="crispEdges" fill="none" stroke="none"/><g xmlns="http://www.w3.org/2000/svg" font-weight="bold" font-size="18px" font-family="Verdana" fill="#000000"><text x="10" y="27.75">Ideal MediaWiki Workflow</text></g><rect xmlns="http://www.w3.org/2000/svg" x="197" y="100" width="140" height="110" rx="16.5" ry="16.5" shape-rendering="crispEdges" fill="#ccffcc" stroke="#000000"/><g xmlns="http://www.w3.org/2000/svg" font-weight="bold" text-anchor="middle" font-size="18px" font-family="Verdana" fill="#000000"><text x="267" y="127.75">GERRIT</text></g><path xmlns="http://www.w3.org/2000/svg" d="M 12 212 C 12 196 72 196 72 212 L 72 248 C 72 264 12 264 12 248 Z" fill="#ffff99" stroke="#000000" stroke-miterlimit="10"/><path xmlns="http://www.w3.org/2000/svg" d="M 12 212 C 12 224 72 224 72 212" fill="none" stroke="#000000" stroke-miterlimit="10"/><g xmlns="http://www.w3.org/2000/svg" text-anchor="middle" font-size="12px" font-family="Verdana" fill="#000000"><text x="42" y="237.5">Local</text><text x="42" y="253.1">repo</text></g><path xmlns="http://www.w3.org/2000/svg" d="M 477 202 C 477 186 537 186 537 202 L 537 238 C 537 254 477 254 477 238 Z" fill="#ff0000" stroke="#000000" stroke-miterlimit="10"/><path xmlns="http://www.w3.org/2000/svg" d="M 477 202 C 477 214 537 214 537 202" fill="none" stroke="#000000" stroke-miterlimit="10"/><g xmlns="http://www.w3.org/2000/svg" font-weight="bold" text-anchor="middle" font-size="12px" font-family="Verdana" fill="#FFFFFF"><text x="507" y="227.5">WMF</text><text x="507" y="243.1">repo</text></g><path xmlns="http://www.w3.org/2000/svg" d="M 82 117 L 82 107 L 152 107 L 152 97 L 182 112 L 152 127 L 152 117 Z" fill="#ffffff" stroke="#000000" stroke-miterlimit="10"/><rect xmlns="http://www.w3.org/2000/svg" x="62" y="60" width="140" height="60" shape-rendering="crispEdges" fill="none" stroke="none"/><g xmlns="http://www.w3.org/2000/svg" font-size="12px" font-family="Verdana" fill="#000000"><text x="65" y="77.5">1) pushes his patch</text><text x="65" y="93.1">2) review others patches</text></g><path xmlns="http://www.w3.org/2000/svg" d="M 224.5 220 L 234.5 220 L 234.5 250 L 244.5 250 L 229.5 280 L 214.5 250 L 224.5 250 Z" fill="#ffffff" stroke="#000000" stroke-miterlimit="10"/><rect xmlns="http://www.w3.org/2000/svg" x="177" y="290" width="170" height="120" rx="18" ry="18" shape-rendering="crispEdges" fill="#99ccff" stroke="#000000"/><g xmlns="http://www.w3.org/2000/svg" font-weight="bold" text-anchor="middle" font-size="18px" font-family="Verdana" fill="#000000"><text x="262" y="317.75">JENKINS</text></g><rect xmlns="http://www.w3.org/2000/svg" x="177" y="320" width="170" height="80" shape-rendering="crispEdges" fill="none" stroke="none"/><g xmlns="http://www.w3.org/2000/svg" font-size="12px" font-family="Verdana" fill="#000000"><text x="180" y="337.5">Cherry pick patch then:</text><text x="180" y="353.1">- lint check</text><text x="180" y="368.7">- attempts MW install</text><text x="180" y="384.3">- run tests suites</text></g><rect xmlns="http://www.w3.org/2000/svg" x="167" y="230" width="60" height="50" shape-rendering="crispEdges" fill="none" stroke="none"/><g xmlns="http://www.w3.org/2000/svg" font-size="12px" font-family="Verdana" fill="#000000"><text x="170" y="247.5">Notifies</text><text x="170" y="263.1">Jenkins</text></g><path xmlns="http://www.w3.org/2000/svg" d="M 273.5 270 L 263.5 270 L 263.5 250 L 253.5 250 L 268.5 220 L 283.5 250 L 273.5 250 Z" fill="#ffffff" stroke="#000000" stroke-miterlimit="10"/><rect xmlns="http://www.w3.org/2000/svg" x="287" y="210" width="90" height="80" shape-rendering="crispEdges" fill="none" stroke="none"/><g xmlns="http://www.w3.org/2000/svg" font-size="12px" font-family="Verdana" fill="#000000"><text x="290" y="227.5"/><text x="290" y="243.1">Reports verification</text><text x="290" y="258.7">status as a comment</text><text x="290" y="274.3">and +1/-1</text></g><path xmlns="http://www.w3.org/2000/svg" d="M 407 60 C 407 36 407 24 427 24 C 413.67 24 413.67 0 427 0 C 440.33 0 440.33 24 427 24 C 447 24 447 36 447 60 Z" fill="#ff00ff" stroke="#000000" stroke-miterlimit="10"/><g xmlns="http://www.w3.org/2000/svg" font-weight="bold" text-anchor="middle" font-size="14px" font-family="Verdana" fill="#000000"><text x="427" y="80.75">Core Team</text></g><path xmlns="http://www.w3.org/2000/svg" d="M 177 155 L 177 165 L 127 165 L 127 175 L 97 160 L 127 145 L 127 155 Z" fill="#ffffff" stroke="#000000" stroke-miterlimit="10"/><rect xmlns="http://www.w3.org/2000/svg" x="87" y="170" width="110" height="20" shape-rendering="crispEdges" fill="none" stroke="none"/><g xmlns="http://www.w3.org/2000/svg" font-size="12px" font-family="Verdana" fill="#000000"><text x="90" y="187.5">Receives review,</text><text x="90" y="203.1">validation</text><text x="90" y="218.7">notifications</text></g><path xmlns="http://www.w3.org/2000/svg" d="M 391.4 53.63 L 394.75 63.05 L 371.37 71.34 L 374.71 80.77 L 341.42 76.66 L 364.69 52.49 L 368.03 61.92 Z" fill="#ffffff" stroke="#000000" stroke-miterlimit="10"/><rect xmlns="http://www.w3.org/2000/svg" x="347" y="87.5" width="120" height="25" shape-rendering="crispEdges" fill="none" stroke="none"/><g xmlns="http://www.w3.org/2000/svg" font-size="12px" font-family="Verdana" fill="#000000"><text x="350" y="105">Validates / rejects</text><text x="350" y="120.6">changes</text></g><path xmlns="http://www.w3.org/2000/svg" d="M 367 205 L 367 195 L 427 195 L 427 185 L 457 200 L 427 215 L 427 205 Z" fill="#ffffff" stroke="#000000" stroke-miterlimit="10"/><rect xmlns="http://www.w3.org/2000/svg" x="347" y="155" width="120" height="25" shape-rendering="crispEdges" fill="none" stroke="none"/><g xmlns="http://www.w3.org/2000/svg" font-size="12px" font-family="Verdana" fill="#000000"><text x="350" y="172.5">Merge to WMF repository</text></g></svg>