<?xml version="1.0" encoding="UTF-8"?>
<svg xmlns="http://www.w3.org/2000/svg" height="379pt" width="460" viewBox="-230 -170 460 474"> 
<defs><clipPath id="a"><path d="m-12.24 107.9v-130l-176.9-178.7v394.3h378.2v-394.3l-176.9 178.7v130z"/></clipPath></defs>
<path d="m192.6 196.7h15.1l22.2 53.5h-14.2l-4-10h-23.1l-4 10h-14.3zm-0.5 34h16l-8-20.6zm-41.1-33h13.1v52.5h-13.1zm-62.12 0h19.82c10.7 0 18.9 2.2 24.2 6.5 5.4 4.4 8 10.9 8 19.6v0.1c0 8.7-2.6 15.3-7.7 19.6-5.2 4.4-12.9 6.8-23.2 6.7h-21.12zm12.92 42.8h8.2c5.8 0 10-1.5 12.9-4.2s4.3-6.8 4.3-12.4c0-5.5-1.6-9.7-4.7-12.4-2.9-2.8-7.6-4.2-13.8-4.2h-6.9zm-61.64 9.7v-52.5h38.71v9.4h-25.58v11.3h24.02v9.4h-24.02v12.8h25.58v9.6zm-54.96 0h-13.12v-52.5h11.79l16.46 18.9 16.25-18.9h11.79v52.5h-13.13v-32.3l-13.79 16.1h-2.393l-13.86-16.1zm-38.26-52.5h13.12v52.5h-13.12zm-55.64 52.5v-52.5h13.01v24.9l16.82-24.9h14.68l-18.24 25.1 23.8 27.4h-16.68l-20.38-25.1v25.1zm-25.1-52.5h13.1v52.5h-13.1zm-73.2 53.3-22.9-53.3h14.3l11.9 29.4 13.6-29.4h10.2l13.5 29.4 11.9-29.4h14.4l-22.9 53.3h-5.7l-16.3-33.2-16.4 33.2z" fill="#484848"/>
<g clip-path="url(#a)">
<circle r="104.3" fill="#396"/>
<circle stroke-width="46" stroke="#069" r="150.5" fill="none"/>
</g>
<text style="text-anchor:middle;font-family:DejaVu Sans;fill:#666;font-size:44px;font-weight:bold" x="7" y="300">DEUTSCHLAND</text>
<circle cy="-113" cx="0" r="57.3" fill="#900"/>
</svg>